%TF.GenerationSoftware,KiCad,Pcbnew,10.0.4*%
%TF.CreationDate,2026-07-01T13:55:05-07:00*%
%TF.ProjectId,MouseLDOtest,4d6f7573-654c-4444-9f74-6573742e6b69,rev?*%
%TF.SameCoordinates,Original*%
%TF.FileFunction,Copper,L1,Top*%
%TF.FilePolarity,Positive*%
%FSLAX46Y46*%
G04 Gerber Fmt 4.6, Leading zero omitted, Abs format (unit mm)*
G04 Created by KiCad (PCBNEW 10.0.4) date 2026-07-01 13:55:05*
%MOMM*%
%LPD*%
G01*
G04 APERTURE LIST*
G04 Aperture macros list*
%AMRoundRect*
0 Rectangle with rounded corners*
0 $1 Rounding radius*
0 $2 $3 $4 $5 $6 $7 $8 $9 X,Y pos of 4 corners*
0 Add a 4 corners polygon primitive as box body*
4,1,4,$2,$3,$4,$5,$6,$7,$8,$9,$2,$3,0*
0 Add four circle primitives for the rounded corners*
1,1,$1+$1,$2,$3*
1,1,$1+$1,$4,$5*
1,1,$1+$1,$6,$7*
1,1,$1+$1,$8,$9*
0 Add four rect primitives between the rounded corners*
20,1,$1+$1,$2,$3,$4,$5,0*
20,1,$1+$1,$4,$5,$6,$7,0*
20,1,$1+$1,$6,$7,$8,$9,0*
20,1,$1+$1,$8,$9,$2,$3,0*%
G04 Aperture macros list end*
%TA.AperFunction,Conductor*%
%ADD10C,0.525000*%
%TD*%
%TA.AperFunction,SMDPad,CuDef*%
%ADD11RoundRect,0.147500X0.147500X0.172500X-0.147500X0.172500X-0.147500X-0.172500X0.147500X-0.172500X0*%
%TD*%
%TA.AperFunction,SMDPad,CuDef*%
%ADD12R,4.000000X2.000000*%
%TD*%
%TA.AperFunction,SMDPad,CuDef*%
%ADD13C,1.000000*%
%TD*%
%TA.AperFunction,SMDPad,CuDef*%
%ADD14R,0.736600X0.304800*%
%TD*%
%TA.AperFunction,SMDPad,CuDef*%
%ADD15R,1.092200X1.701800*%
%TD*%
%TA.AperFunction,SMDPad,CuDef*%
%ADD16RoundRect,0.140000X-0.170000X0.140000X-0.170000X-0.140000X0.170000X-0.140000X0.170000X0.140000X0*%
%TD*%
%TA.AperFunction,SMDPad,CuDef*%
%ADD17RoundRect,0.140000X-0.140000X-0.170000X0.140000X-0.170000X0.140000X0.170000X-0.140000X0.170000X0*%
%TD*%
%TA.AperFunction,Conductor*%
%ADD18C,0.200000*%
%TD*%
G04 APERTURE END LIST*
%TO.N,/antenna_out*%
D10*
X138252500Y-80140000D02*
G75*
G02*
X137727500Y-80140000I-262500J0D01*
G01*
X137727500Y-80140000D02*
G75*
G02*
X138252500Y-80140000I262500J0D01*
G01*
%TD*%
D11*
%TO.P,D1,1,K_1*%
%TO.N,/antenna_out*%
X136757500Y-81660000D03*
%TO.P,D1,2,A_2*%
%TO.N,Net-(D1-A)*%
X135787500Y-81660000D03*
%TD*%
D12*
%TO.P,AP1,1,1_1*%
%TO.N,Net-(D1-A)*%
X132360000Y-81190000D03*
%TD*%
D13*
%TO.P,OE1,1,1_1*%
%TO.N,GND*%
X142370000Y-84800000D03*
%TD*%
D14*
%TO.P,IC1,1,VOUT_1*%
%TO.N,Net-(IC1-VOUT)*%
X139670600Y-82840001D03*
%TO.P,IC1,2,NC_1_2*%
%TO.N,unconnected-(IC1-NC_1-Pad2)*%
X139670600Y-83490000D03*
%TO.P,IC1,3,GND_1_3*%
%TO.N,GND*%
X139670600Y-84139999D03*
%TO.P,IC1,4,EN_4*%
%TO.N,/antenna_out*%
X137689400Y-84139999D03*
%TO.P,IC1,5,NC_2_5*%
%TO.N,unconnected-(IC1-NC_2-Pad5)*%
X137689400Y-83490000D03*
%TO.P,IC1,6,VIN_6*%
%TO.N,/antenna_out*%
X137689400Y-82840001D03*
D15*
%TO.P,IC1,7,GND_2_7*%
%TO.N,GND*%
X138680000Y-83490000D03*
%TD*%
D16*
%TO.P,C_output1,1*%
%TO.N,Net-(IC1-VOUT)*%
X141000000Y-83020000D03*
%TO.P,C_output1,2*%
%TO.N,GND*%
X141000000Y-83980000D03*
%TD*%
%TO.P,C_tuning1,1*%
%TO.N,Net-(D1-A)*%
X135830000Y-82780000D03*
%TO.P,C_tuning1,2*%
%TO.N,GND*%
X135830000Y-83740000D03*
%TD*%
D13*
%TO.P,OE2,1,1_1*%
%TO.N,Net-(IC1-VOUT)*%
X142370000Y-82130000D03*
%TD*%
D16*
%TO.P,C_tuning2,1*%
%TO.N,Net-(D1-A)*%
X134890000Y-82790000D03*
%TO.P,C_tuning2,2*%
%TO.N,GND*%
X134890000Y-83750000D03*
%TD*%
D17*
%TO.P,C_storage1,1*%
%TO.N,/antenna_out*%
X137890000Y-81680000D03*
%TO.P,C_storage1,2*%
%TO.N,GND*%
X138850000Y-81680000D03*
%TD*%
D12*
%TO.P,AP2,1,1_1*%
%TO.N,GND*%
X132370000Y-85370000D03*
%TD*%
%TO.N,Net-(D1-A)*%
D18*
X135820000Y-82790000D02*
X134890000Y-82790000D01*
X133960000Y-82790000D02*
X132360000Y-81190000D01*
X135830000Y-82780000D02*
X135820000Y-82790000D01*
X134890000Y-82790000D02*
X133960000Y-82790000D01*
X135787500Y-82737500D02*
X135830000Y-82780000D01*
X135787500Y-81660000D02*
X135787500Y-82737500D01*
%TO.N,GND*%
X138680000Y-83980000D02*
X138910000Y-84210000D01*
X138980001Y-84139999D02*
X139670600Y-84139999D01*
X138680000Y-83490000D02*
X138680000Y-83980000D01*
X140840001Y-84139999D02*
X141000000Y-83980000D01*
X135830000Y-83740000D02*
X135830000Y-84270000D01*
X134890000Y-83750000D02*
X135820000Y-83750000D01*
X141000000Y-83980000D02*
X141820000Y-84800000D01*
X138850000Y-81680000D02*
X138850000Y-83320000D01*
X138670000Y-84760000D02*
X138670000Y-83500000D01*
X138910000Y-84210000D02*
X138980001Y-84139999D01*
X136930000Y-85370000D02*
X138060000Y-85370000D01*
X133270000Y-85370000D02*
X134890000Y-83750000D01*
X138850000Y-83320000D02*
X138680000Y-83490000D01*
X141820000Y-84800000D02*
X142370000Y-84800000D01*
X132370000Y-85370000D02*
X136930000Y-85370000D01*
X138670000Y-83500000D02*
X138680000Y-83490000D01*
X132370000Y-85370000D02*
X133270000Y-85370000D01*
X139670600Y-84139999D02*
X140840001Y-84139999D01*
X135820000Y-83750000D02*
X135830000Y-83740000D01*
X135830000Y-84270000D02*
X136930000Y-85370000D01*
X138060000Y-85370000D02*
X138670000Y-84760000D01*
%TO.N,Net-(IC1-VOUT)*%
X139670600Y-82840001D02*
X140820001Y-82840001D01*
X141890000Y-82130000D02*
X142370000Y-82130000D01*
X140820001Y-82840001D02*
X141000000Y-83020000D01*
X141000000Y-83020000D02*
X141890000Y-82130000D01*
%TO.N,/antenna_out*%
X136840000Y-83080000D02*
X136840000Y-83910000D01*
X137870000Y-81660000D02*
X137890000Y-81680000D01*
X137069999Y-84139999D02*
X137689400Y-84139999D01*
X136840000Y-83910000D02*
X137069999Y-84139999D01*
X136757500Y-81660000D02*
X136757500Y-81908101D01*
X137079999Y-82840001D02*
X136840000Y-83080000D01*
X136757500Y-81908101D02*
X137689400Y-82840001D01*
X137689400Y-82840001D02*
X137079999Y-82840001D01*
X136757500Y-81660000D02*
X136757500Y-81372500D01*
X136757500Y-81660000D02*
X137870000Y-81660000D01*
X136757500Y-81372500D02*
X137990000Y-80140000D01*
%TD*%
M02*
